<?xml version="1.0" standalone="no"?>
<!DOCTYPE svg PUBLIC "-//W3C//DTD SVG 20010904//EN"
 "http://www.w3.org/TR/2001/REC-SVG-20010904/DTD/svg10.dtd">
<svg version="1.0" xmlns="http://www.w3.org/2000/svg"
 width="2868.000000pt" height="639.000000pt" viewBox="0 0 2868.000000 639.000000"
 preserveAspectRatio="xMidYMid meet">

<g transform="translate(0.000000,639.000000) scale(0.100000,-0.100000)"
fill="#0d6efd" stroke="none">
<path d="M2961 6063 c-36 -7 -58 -23 -271 -198 -107 -88 -209 -172 -226 -185
-17 -14 -91 -74 -164 -135 -74 -60 -159 -131 -189 -156 -242 -198 -789 -646
-985 -807 -131 -109 -255 -210 -276 -227 -265 -212 -601 -496 -622 -527 -69
-102 -39 -235 71 -313 42 -29 45 -30 179 -33 76 -1 147 -5 160 -8 l22 -4 0
-1318 c0 -1430 -1 -1391 55 -1503 35 -67 121 -158 183 -192 26 -14 74 -34 107
-44 57 -17 146 -18 2010 -18 1874 0 1953 1 2018 19 121 33 228 119 283 228 56
110 54 47 54 1476 0 893 3 1330 10 1343 10 17 22 19 143 19 73 0 149 5 171 11
88 24 165 149 150 245 -13 88 -26 102 -353 369 -60 50 -112 99 -115 110 -3 11
-6 229 -6 485 0 276 -4 480 -10 501 -15 53 -72 113 -131 138 -48 21 -64 22
-218 19 -184 -3 -201 -8 -264 -73 -56 -57 -67 -111 -67 -316 0 -121 -3 -179
-11 -179 -6 0 -119 89 -252 197 -270 221 -264 216 -328 269 -25 22 -90 75
-144 119 -102 83 -337 276 -510 419 -346 285 -356 291 -474 269z m1717 -4015
l-3 -953 -475 0 -475 0 -3 953 -2 952 480 0 480 0 -2 -952z"/>
<path d="M7340 5810 l-415 -5 -3 -1697 -2 -1698 410 0 410 0 0 721 0 721 93
-4 c107 -5 152 -24 229 -96 104 -97 194 -267 419 -795 83 -194 171 -396 196
-450 l46 -97 439 0 c242 0 437 3 435 8 -3 4 -54 124 -115 267 -200 475 -289
664 -391 837 -107 182 -241 336 -363 420 -32 21 -58 42 -58 47 0 4 24 18 52
32 207 96 379 275 461 480 75 187 75 493 1 701 -73 204 -205 351 -409 453
-223 113 -537 170 -900 163 -66 -2 -307 -5 -535 -8z m720 -540 c210 -40 321
-197 322 -450 0 -155 -34 -254 -115 -338 -92 -95 -178 -122 -386 -122 l-141 0
0 460 0 460 134 0 c73 0 157 -5 186 -10z"/>
<path d="M16780 4110 l0 -1700 405 0 405 0 2 728 3 727 593 3 592 2 0 -730 0
-730 405 0 405 0 -2 1698 -3 1697 -400 0 -400 0 -3 -668 -2 -667 -593 2 -592
3 -5 665 -5 665 -402 3 -403 2 0 -1700z"/>
<path d="M15415 5497 c-176 -39 -322 -74 -325 -78 -3 -5 -23 -118 -44 -251
-21 -134 -43 -249 -48 -255 -8 -10 -62 -13 -209 -13 l-199 0 0 -285 0 -285
200 0 200 0 0 -674 c0 -722 4 -784 52 -900 28 -67 99 -167 145 -205 96 -79
239 -131 416 -152 138 -16 410 -6 552 20 91 17 323 76 332 85 4 3 -125 507
-131 514 -3 3 -46 -2 -94 -11 -288 -56 -415 -36 -474 76 l-23 42 0 600 0 600
247 3 246 2 6 28 c11 51 86 514 86 528 0 11 -52 14 -292 16 l-293 3 -3 333
c-2 256 -5 332 -15 331 -6 -1 -156 -33 -332 -72z"/>
<path d="M10625 4954 c-547 -92 -902 -458 -1012 -1044 -26 -143 -24 -492 6
-654 68 -379 236 -629 516 -769 364 -182 933 -161 1473 54 80 32 102 45 98 58
-3 9 -35 123 -72 254 -37 130 -71 237 -76 237 -5 0 -74 -20 -153 -45 -236 -73
-377 -99 -535 -99 -117 0 -143 3 -192 23 -110 43 -212 166 -233 281 l-6 35
153 23 c254 37 405 80 593 172 264 128 434 303 512 525 25 72 28 93 28 215 0
164 -19 255 -77 373 -97 194 -288 318 -559 362 -115 18 -353 18 -464 -1z m241
-569 c60 -35 89 -98 89 -191 -1 -175 -149 -327 -373 -385 -41 -10 -99 -19
-129 -19 l-53 0 0 61 c0 84 35 249 72 337 32 77 108 171 159 198 77 39 166 39
235 -1z"/>
<path d="M20960 4963 c-250 -38 -396 -93 -550 -206 -331 -245 -502 -710 -462
-1259 6 -90 20 -212 32 -271 81 -417 304 -689 659 -806 135 -44 225 -56 436
-56 171 0 215 3 302 23 392 87 669 343 802 740 68 203 95 435 80 691 -14 251
-56 435 -135 600 -58 122 -113 199 -206 287 -146 138 -310 212 -553 249 -90
13 -339 19 -405 8z m257 -609 c29 -14 64 -39 78 -56 97 -115 145 -336 145
-667 0 -297 -43 -502 -124 -599 -50 -58 -111 -86 -185 -86 -168 1 -277 116
-325 345 -27 129 -41 409 -28 580 19 243 53 358 132 443 74 80 193 95 307 40z"/>
<path d="M27505 4963 c-75 -9 -231 -46 -293 -69 -178 -68 -316 -158 -443 -291
-162 -170 -262 -369 -320 -640 -27 -123 -38 -462 -20 -611 60 -494 297 -814
688 -927 319 -93 705 -78 1100 41 156 47 325 115 320 128 -3 6 -35 119 -72
251 -38 132 -70 242 -72 244 -2 2 -65 -14 -141 -37 -292 -88 -448 -117 -596
-110 -85 4 -111 10 -167 35 -86 39 -142 97 -184 186 -59 125 -64 118 105 143
458 66 792 224 983 464 168 209 209 463 119 734 -82 249 -297 408 -619 455
-67 10 -320 13 -388 4z m180 -572 c16 -9 43 -36 60 -60 28 -40 30 -49 30 -129
0 -75 -4 -95 -28 -143 -30 -63 -111 -149 -172 -184 -75 -43 -186 -77 -272 -82
l-83 -6 0 28 c0 61 33 245 57 317 32 96 95 193 150 232 80 55 189 67 258 27z"/>
<path d="M13485 4950 c-291 -34 -540 -175 -679 -384 -20 -31 -41 -56 -46 -56
-4 0 -17 31 -29 69 -12 38 -35 100 -52 137 -42 95 -136 234 -158 234 -16 0
-587 -176 -603 -186 -4 -3 13 -37 39 -76 77 -119 146 -314 177 -503 35 -207
38 -304 41 -1025 2 -399 4 -731 4 -737 1 -10 85 -13 386 -13 l385 0 0 633 c0
347 5 680 10 738 25 268 124 472 270 557 36 22 58 27 112 27 74 0 105 -16 146
-75 58 -86 56 -57 60 -1007 l3 -873 394 0 395 0 0 833 c0 860 -6 1041 -40
1184 -81 342 -287 513 -639 527 -58 3 -137 1 -176 -4z"/>
<path d="M23979 4950 c-219 -25 -401 -111 -536 -253 -39 -41 -85 -99 -104
-131 -19 -31 -38 -55 -42 -53 -5 1 -19 35 -32 76 -43 133 -159 342 -201 358
-11 4 -597 -171 -613 -183 -2 -2 12 -28 31 -57 97 -146 161 -336 205 -609 14
-88 17 -222 20 -895 l4 -793 389 0 389 0 4 738 c3 661 5 745 21 812 58 245
170 396 305 407 94 8 149 -53 171 -187 6 -41 10 -385 10 -917 l0 -853 395 0
394 0 3 748 4 747 26 96 c65 238 193 381 326 366 38 -4 53 -12 78 -41 37 -43
53 -91 65 -205 5 -47 9 -452 9 -898 l0 -813 390 0 390 0 0 884 c0 533 -4 925
-10 987 -37 367 -182 579 -445 650 -116 32 -333 32 -460 0 -169 -41 -328 -138
-432 -264 -20 -23 -38 -43 -42 -44 -3 -2 -24 27 -46 63 -73 121 -198 212 -340
247 -78 20 -230 28 -326 17z"/>
<path d="M19349 1530 c-70 -21 -124 -90 -135 -174 -8 -58 -25 -76 -69 -76 -29
0 -33 -4 -37 -30 -6 -38 -3 -40 44 -40 35 0 38 -2 33 -22 -12 -54 -75 -435
-75 -455 0 -20 5 -23 40 -23 46 0 35 -33 89 285 l36 210 55 3 c61 3 65 6 74
45 6 27 6 27 -41 27 -69 0 -76 7 -63 64 19 85 54 116 130 116 35 0 39 3 45 31
5 22 3 34 -6 40 -17 11 -84 10 -120 -1z"/>
<path d="M26475 1525 c-67 -24 -113 -93 -130 -196 -6 -38 -22 -49 -71 -49 -16
0 -23 -8 -27 -27 -7 -38 -2 -43 42 -43 l38 0 -42 -245 c-23 -134 -40 -247 -37
-250 3 -3 22 -5 42 -5 l37 0 16 88 c9 48 28 160 43 250 l27 162 51 0 c60 0 71
6 78 42 5 27 4 27 -51 30 l-56 3 3 44 c5 85 51 131 130 131 36 0 40 3 46 32 4
21 2 34 -6 40 -20 12 -89 9 -133 -7z"/>
<path d="M14865 1518 c-2 -7 -13 -71 -25 -143 -28 -171 -25 -163 -58 -133 -95
89 -234 66 -313 -52 -96 -143 -91 -368 11 -453 54 -46 162 -45 222 3 27 21 38
18 38 -12 0 -16 6 -19 37 -16 l38 3 67 385 c37 212 67 395 68 408 0 19 -5 22
-40 22 -24 0 -42 -5 -45 -12z m-120 -322 c54 -36 56 -48 31 -193 -13 -73 -31
-144 -40 -158 -20 -31 -88 -64 -129 -65 -43 0 -87 28 -103 65 -19 46 -18 161
2 223 20 60 66 119 108 138 37 17 97 12 131 -10z"/>
<path d="M23410 1526 c0 -2 -31 -185 -70 -407 -38 -222 -70 -404 -70 -406 0
-8 80 -2 85 7 3 5 21 97 39 203 19 107 39 204 45 215 6 12 28 34 48 49 45 35
128 40 161 10 33 -30 33 -73 -2 -279 -18 -109 -31 -200 -28 -203 3 -3 22 -5
43 -5 44 0 36 -23 78 235 31 189 30 239 -3 289 -28 43 -60 58 -126 58 -46 0
-70 -6 -106 -26 -26 -15 -48 -25 -50 -23 -2 2 7 65 20 140 12 75 21 139 18
142 -6 6 -82 7 -82 1z"/>
<path d="M13129 1482 l-36 -3 -62 -367 c-35 -202 -63 -374 -64 -382 -2 -11 10
-16 40 -18 49 -4 44 -17 77 182 15 86 31 153 38 158 7 4 79 8 159 8 l147 0 6
31 c3 17 3 35 0 41 -3 5 -67 8 -150 7 -79 -2 -147 0 -150 4 -10 10 36 251 49
259 7 4 89 8 183 8 l172 0 6 32 c3 17 5 32 4 34 -5 4 -379 9 -419 6z"/>
<path d="M13670 1471 c-15 -28 -12 -46 8 -64 43 -39 108 6 84 58 -15 32 -76
36 -92 6z"/>
<path d="M20671 1359 c-6 -34 -13 -64 -16 -67 -2 -3 -27 -7 -55 -10 -49 -4
-50 -5 -50 -38 0 -34 0 -34 48 -34 l49 0 -28 -167 c-37 -214 -37 -262 -4 -301
27 -32 68 -45 115 -35 27 5 30 9 30 44 0 37 -2 39 -24 33 -25 -6 -66 24 -66
49 0 6 14 90 30 185 17 96 30 178 30 183 0 5 22 9 49 9 53 0 55 1 65 42 6 26
5 27 -41 30 -46 3 -48 4 -48 33 1 17 4 47 7 68 l7 37 -44 0 -43 0 -11 -61z"/>
<path d="M22807 1413 c-3 -5 -8 -33 -12 -65 -8 -61 -16 -68 -81 -68 -26 0 -33
-5 -38 -25 -9 -37 0 -45 51 -45 44 0 45 -1 40 -27 -3 -16 -17 -102 -32 -193
-23 -139 -25 -172 -16 -208 14 -52 49 -77 108 -77 49 0 63 13 63 59 0 22 -4
27 -16 22 -28 -11 -64 5 -70 30 -4 14 6 97 20 187 37 228 29 207 79 207 48 0
67 13 67 46 0 20 -6 23 -42 26 l-43 3 3 68 2 67 -39 0 c-22 0 -42 -3 -44 -7z"/>
<path d="M27836 1403 c-3 -10 -8 -39 -11 -65 -7 -50 -18 -58 -81 -58 -27 0
-33 -5 -37 -27 -7 -39 -2 -43 49 -43 24 0 44 -3 44 -7 0 -5 -14 -94 -31 -199
l-32 -190 21 -47 c17 -38 27 -48 60 -58 27 -8 49 -8 68 -2 24 8 30 16 32 47 3
34 2 36 -21 31 -15 -4 -31 0 -47 13 l-24 20 17 108 c10 60 25 148 33 196 l16
87 51 3 c49 3 52 4 58 36 l6 32 -44 0 c-53 0 -58 10 -46 85 l10 55 -43 0 c-32
0 -44 -4 -48 -17z"/>
<path d="M14080 1289 c-25 -5 -57 -18 -72 -29 -35 -26 -52 -26 -45 0 5 18 0
20 -39 20 -25 0 -44 -5 -44 -11 0 -6 -20 -127 -45 -269 -25 -142 -45 -266 -45
-275 0 -13 8 -16 42 -13 l42 3 36 205 c22 130 42 215 54 232 21 32 90 68 130
68 34 0 82 -24 90 -45 12 -32 6 -102 -24 -270 -16 -93 -30 -176 -30 -182 0 -9
15 -13 43 -13 l44 0 33 197 c34 210 35 280 4 328 -31 48 -97 68 -174 54z"/>
<path d="M15983 1290 c-59 -9 -131 -57 -170 -114 -47 -69 -66 -141 -61 -240 3
-71 7 -89 33 -132 43 -69 100 -99 185 -98 79 1 130 24 184 85 82 90 115 228
82 342 -34 118 -128 176 -253 157z m107 -85 c106 -55 85 -311 -32 -398 -16
-12 -49 -22 -80 -25 -95 -7 -142 53 -142 180 1 143 83 258 187 258 21 0 51 -7
67 -15z"/>
<path d="M17125 1276 c-59 -31 -55 -30 -55 -11 0 11 -11 15 -40 15 -33 0 -40
-4 -45 -22 -3 -13 -23 -129 -45 -258 -22 -129 -43 -247 -46 -262 -5 -27 -4
-28 35 -28 22 0 43 4 46 10 3 5 22 98 40 206 19 109 42 208 51 221 20 31 88
62 135 63 34 0 37 2 42 37 4 20 5 39 3 40 -2 2 -19 6 -37 9 -24 4 -48 -2 -84
-20z"/>
<path d="M17829 1291 c-20 -4 -53 -17 -73 -29 -36 -21 -36 -21 -36 -1 0 18 -5
20 -42 17 l-42 -3 -62 -358 c-34 -197 -65 -373 -68 -392 l-7 -35 46 0 c25 0
45 4 45 8 0 9 38 225 46 260 l5 23 34 -30 c126 -110 296 -32 357 162 21 68 24
205 6 258 -32 95 -109 139 -209 120z m71 -86 c78 -40 89 -197 24 -327 -34 -67
-75 -93 -147 -93 -55 0 -61 2 -93 38 -22 23 -33 44 -30 55 3 9 15 73 26 142
23 136 32 152 95 181 49 23 87 24 125 4z"/>
<path d="M18383 1289 c-60 -11 -95 -32 -142 -85 -59 -68 -84 -139 -85 -249 -1
-97 11 -133 63 -188 55 -60 135 -79 225 -53 52 15 136 75 136 96 0 4 -12 15
-26 25 -25 16 -27 16 -47 -3 -65 -59 -155 -70 -208 -25 -37 32 -59 78 -59 127
l0 36 188 2 187 3 3 72 c3 87 -10 142 -44 183 -46 54 -111 74 -191 59z m98
-85 c35 -17 59 -67 59 -119 l0 -35 -140 0 c-154 0 -153 -1 -126 63 15 36 61
85 91 98 33 13 84 10 116 -7z"/>
<path d="M18934 1289 c-17 -5 -37 -16 -44 -24 -16 -19 -30 -19 -30 0 0 11 -11
15 -43 15 l-42 0 -44 -257 c-25 -142 -46 -271 -49 -286 -4 -28 -4 -28 39 -25
l44 3 35 201 c22 126 42 211 53 228 23 34 89 65 140 66 36 0 37 1 37 39 0 51
-24 61 -96 40z"/>
<path d="M19670 1290 c-230 -45 -317 -448 -121 -558 86 -48 199 -35 279 33 23
20 42 40 42 43 0 4 -12 15 -26 26 -25 18 -26 18 -47 -2 -57 -51 -140 -67 -198
-36 -36 18 -68 83 -69 137 l0 37 184 0 c209 0 196 -6 196 88 0 167 -97 261
-240 232z m98 -84 c36 -19 55 -56 56 -108 l1 -43 -143 -3 -144 -3 7 23 c14 47
61 111 95 129 41 23 91 24 128 5z"/>
<path d="M20221 1289 c-123 -24 -207 -143 -218 -310 -9 -120 32 -215 111 -256
43 -23 150 -22 196 1 65 34 130 109 130 151 0 11 -10 15 -37 15 -32 -1 -41 -6
-58 -33 -62 -98 -196 -104 -240 -11 -25 54 -17 201 15 267 34 71 80 102 151
102 68 0 103 -25 120 -87 10 -37 12 -39 47 -36 36 3 37 4 34 38 -11 112 -124
184 -251 159z"/>
<path d="M21404 1289 c-17 -5 -37 -16 -44 -24 -16 -20 -44 -20 -36 0 4 12 -4
15 -39 15 -25 0 -45 -2 -45 -4 0 -3 -20 -121 -45 -263 -25 -142 -45 -268 -45
-280 0 -20 5 -23 39 -23 l40 0 10 53 c6 28 22 120 36 202 32 191 58 229 162
242 50 5 53 7 59 40 10 51 -18 64 -92 42z"/>
<path d="M21753 1289 c-89 -16 -176 -106 -208 -213 -24 -79 -19 -191 9 -252
56 -120 196 -156 324 -83 66 37 82 64 54 91 -19 19 -19 19 -65 -13 -85 -60
-192 -47 -231 28 -8 16 -17 49 -21 75 l-7 48 188 2 189 3 9 38 c13 53 -6 159
-37 206 -39 59 -117 86 -204 70z m123 -103 c30 -30 34 -40 34 -85 l0 -51 -141
0 -141 0 6 28 c11 43 58 105 96 124 57 29 106 24 146 -16z"/>
<path d="M22359 1291 c-20 -4 -52 -17 -71 -29 -43 -27 -48 -27 -48 -2 0 17 -7
20 -40 20 -36 0 -40 -2 -45 -32 -46 -253 -91 -525 -88 -530 2 -5 22 -8 43 -8
34 0 39 3 44 28 3 15 19 108 36 207 20 115 37 189 48 205 49 69 164 88 209 35
30 -34 29 -55 -7 -263 -39 -226 -40 -214 12 -210 l41 3 34 205 c41 242 38 286
-23 339 -19 17 -42 31 -52 31 -9 0 -26 2 -37 4 -11 2 -36 1 -56 -3z"/>
<path d="M24102 1289 c-131 -25 -223 -158 -226 -324 -1 -93 14 -143 57 -191
57 -66 138 -87 229 -60 172 50 267 301 179 473 -42 83 -134 122 -239 102z
m108 -82 c91 -46 103 -232 22 -350 -69 -102 -207 -104 -253 -4 -50 112 5 302
102 350 40 20 95 22 129 4z"/>
<path d="M24729 1291 c-20 -4 -53 -17 -73 -29 -35 -21 -36 -21 -36 -2 0 17 -7
20 -43 20 l-42 0 -48 -277 c-26 -153 -47 -282 -47 -286 0 -5 19 -7 43 -5 l42
3 37 214 c34 193 40 217 64 242 52 55 142 63 190 18 19 -18 24 -33 24 -72 0
-41 -34 -273 -56 -379 -5 -27 -4 -28 40 -28 25 0 46 4 46 9 0 4 13 88 30 186
42 255 75 310 185 310 62 0 91 -20 100 -69 4 -17 -8 -113 -24 -213 -40 -234
-40 -223 9 -223 47 0 39 -22 80 232 24 147 28 197 21 230 -19 84 -69 121 -161
121 -60 0 -108 -19 -153 -62 l-28 -26 -27 31 c-43 50 -101 69 -173 55z"/>
<path d="M25620 1290 c-230 -45 -317 -448 -121 -558 86 -48 199 -35 279 33 23
20 42 40 42 43 0 4 -12 15 -26 26 -25 18 -26 18 -47 -2 -58 -52 -143 -67 -198
-35 -36 21 -69 87 -69 136 l0 37 184 0 c209 0 196 -6 196 88 0 169 -96 261
-240 232z m99 -85 c35 -17 63 -75 59 -118 l-3 -32 -143 -3 -144 -3 7 23 c14
47 61 111 95 129 42 23 91 24 129 4z"/>
<path d="M26799 1286 c-63 -17 -110 -46 -136 -86 -35 -51 -31 -70 17 -70 33 0
42 4 54 29 19 35 71 61 126 61 57 0 100 -42 100 -97 0 -21 -4 -43 -8 -49 -4
-6 -50 -14 -102 -17 -106 -6 -150 -18 -198 -55 -52 -38 -72 -78 -72 -144 0
-52 3 -62 36 -98 61 -67 152 -76 241 -24 51 29 51 29 55 2 2 -19 10 -24 46
-26 l42 -3 0 56 c0 30 12 127 26 215 20 126 23 167 15 197 -11 38 -47 81 -86
100 -35 18 -109 22 -156 9z m137 -323 c-2 -16 -7 -45 -11 -65 -12 -73 -118
-132 -197 -109 -43 13 -58 35 -58 85 0 43 39 92 83 105 18 5 67 10 110 10 l79
1 -6 -27z"/>
<path d="M27352 1289 c-89 -17 -151 -77 -160 -154 -9 -83 42 -131 182 -171 97
-27 130 -80 86 -137 -46 -58 -163 -62 -212 -8 -15 17 -28 40 -28 51 0 17 -7
20 -40 20 -49 0 -57 -14 -35 -66 20 -48 41 -71 85 -94 90 -46 209 -30 282 38
46 43 63 97 47 154 -13 50 -55 80 -154 113 -107 34 -125 48 -125 88 0 106 184
131 226 31 13 -31 18 -34 55 -34 l42 0 -6 35 c-16 97 -125 157 -245 134z"/>
<path d="M13640 1272 c0 -4 -20 -123 -45 -265 -25 -142 -45 -267 -45 -278 0
-16 7 -19 40 -19 33 0 40 4 45 23 2 12 23 130 45 262 23 132 44 250 47 263 5
20 2 22 -41 22 -25 0 -46 -3 -46 -8z"/>
<path d="M15280 1268 c0 -7 21 -132 46 -278 l47 -264 -32 -63 c-37 -71 -66
-94 -128 -101 -44 -5 -44 -5 -41 -41 3 -35 4 -36 46 -39 63 -5 121 33 165 105
34 57 347 677 347 688 0 4 -21 5 -47 3 l-47 -3 -92 -195 c-51 -107 -95 -199
-97 -205 -2 -5 -8 -7 -12 -3 -6 6 -64 360 -65 396 0 8 -16 12 -45 12 -29 0
-45 -4 -45 -12z"/>
<path d="M16396 1268 c-14 -44 -56 -344 -56 -393 0 -69 21 -118 63 -149 41
-30 137 -29 195 2 52 27 52 27 52 2 0 -17 7 -20 39 -20 35 0 40 3 45 28 3 15
24 133 46 262 22 129 43 245 45 258 5 20 2 22 -40 22 -25 0 -45 -1 -45 -3 0
-1 -16 -92 -35 -202 -23 -136 -40 -207 -53 -224 -31 -42 -65 -61 -117 -67 -41
-5 -55 -2 -76 15 -41 32 -43 71 -9 269 16 99 30 187 30 196 0 12 -10 16 -40
16 -24 0 -42 -5 -44 -12z"/>
<path d="M12126 1130 c-39 -12 -85 -57 -107 -105 -28 -60 -25 -75 14 -75 30 0
36 5 52 41 22 47 40 59 90 59 30 0 49 -10 103 -55 69 -57 108 -72 168 -62 50
8 89 41 118 99 35 70 34 88 -4 88 -24 0 -32 -6 -44 -33 -17 -41 -60 -77 -93
-77 -33 0 -59 15 -116 66 -64 57 -117 73 -181 54z"/>
</g>
</svg>
